<svg id="SvgjsSvg1001" width="288" height="288" xmlns="http://www.w3.org/2000/svg" version="1.1" xmlns:xlink="http://www.w3.org/1999/xlink" xmlns:svgjs="http://svgjs.com/svgjs"><defs id="SvgjsDefs1002"></defs><g id="SvgjsG1008"><svg xmlns="http://www.w3.org/2000/svg" viewBox="0 0 32 32" width="288" height="288"><path fill="#f9fbfc" d="M27,26H5a3,3,0,0,1-3-3V9A3,3,0,0,1,5,6H27a3,3,0,0,1,3,3V23A3,3,0,0,1,27,26ZM5,8A1,1,0,0,0,4,9V23a1,1,0,0,0,1,1H27a1,1,0,0,0,1-1V9a1,1,0,0,0-1-1Z" class="color231f20 svgShape"></path><path fill="#f9fbfc" d="M16,17a1,1,0,0,1-.55-.17l-12-8A1,1,0,0,1,4.55,7.17l12,8A1,1,0,0,1,16,17Z" class="color231f20 svgShape"></path><path fill="#f9fbfc" d="M16,17a1,1,0,0,1-.56-1.83l12-8a1,1,0,0,1,1.11,1.66l-12,8A1,1,0,0,1,16,17Z" class="color231f20 svgShape"></path></svg></g></svg>