<svg width="1080" height="1080" viewBox="0 0 1080 1080" fill="none" xmlns="http://www.w3.org/2000/svg">
<path d="M408.85 270.31C408.24 271.82 407.58 273.31 406.86 274.76C407.41 273.2 408.02 271.63 408.68 270.12C408.74 270.18 408.79 270.25 408.85 270.3V270.31Z" fill="url(#paint0_linear_805_7802)"/>
<path d="M472.42 352.43C472.42 352.43 472.4 352.5 472.39 352.53C472.01 352.57 471.62 352.6 471.23 352.61C471.63 352.54 472.02 352.48 472.42 352.43Z" fill="url(#paint1_linear_805_7802)"/>
<path d="M408.85 270.31C408.24 271.82 407.58 273.31 406.86 274.76C407.41 273.2 408.02 271.63 408.68 270.12C408.74 270.18 408.79 270.25 408.85 270.3V270.31Z" fill="url(#paint2_linear_805_7802)"/>
<path d="M472.42 352.43C472.42 352.43 472.4 352.5 472.39 352.53C472.01 352.57 471.62 352.6 471.23 352.61C471.63 352.54 472.02 352.48 472.42 352.43Z" fill="url(#paint3_linear_805_7802)"/>
<path d="M563.23 253.39C563.78 254.12 564.32 254.87 564.8 255.64C564.19 254.92 563.62 254.18 563.08 253.42C563.13 253.42 563.18 253.4 563.23 253.38V253.39Z" fill="url(#paint4_linear_805_7802)"/>
<path d="M564.8 255.65C564.19 254.93 563.62 254.19 563.08 253.43C563.13 253.43 563.18 253.41 563.23 253.39C563.78 254.12 564.32 254.87 564.8 255.64V255.65Z" fill="url(#paint5_linear_805_7802)"/>
<path d="M518.55 596.09C601.658 596.09 669.03 527.921 669.03 443.83C669.03 359.739 601.658 291.57 518.55 291.57C435.442 291.57 368.07 359.739 368.07 443.83C368.07 527.921 435.442 596.09 518.55 596.09Z" fill="#F9BD36"/>
<path d="M634.92 474.28C645.16 486.61 649.68 503.64 646.93 519.53C633.98 527.39 617.98 529.92 603.3 526.43C607.5 543.19 603.15 561.92 592.01 575.01C576.59 575.46 561.12 568.97 550.38 557.75C550.05 561.07 547.92 564.29 546.4 567.09C544.49 570.61 542.2 573.93 539.59 576.97C534.39 583.06 527.93 588.05 520.71 591.4C519.26 592.08 517.79 592.69 516.29 593.22C502.46 585.26 492.1 571.3 488.4 555.59C483.04 562.71 474.87 567.32 466.31 569.5C457.75 571.69 448.76 571.6 439.98 570.61C432.74 557.28 430.68 541.13 434.33 526.36C417.9 529.83 399.97 524.93 387.48 513.56C387.64 498.12 393.96 482.84 404.71 471.9C396.79 470.74 389.67 466.09 384.17 460.19C378.68 454.28 374.64 447.17 370.9 439.99C370.42 439.06 369.93 438.07 369.96 437.03C370 435.68 370.88 434.53 371.72 433.49C381.57 421.47 394.41 409.56 409.74 409.74C409.76 409.76 409.78 409.76 409.8 409.78C409.8 409.78 409.806 409.767 409.82 409.74C409.98 409.74 410.15 409.74 410.32 409.74C399.14 447.66 409.1 491.24 435.58 520.3C446.64 532.44 460.46 541.88 475.52 548.11C490.67 554.38 507.13 557.45 523.48 556.83C531.02 556.55 538.55 555.36 545.99 554.16C555.76 552.59 564.21 549.07 572.81 544.23C579.76 540.32 586.31 535.66 592.32 530.37C604.34 519.81 614.26 506.75 621.06 492.14C623.37 487.18 625.32 482.04 626.86 476.78C631.67 460.36 632.51 442.85 629.74 425.98C626.56 406.56 618.43 388.56 606.93 372.78C601.61 365.48 594.94 359.77 587.87 354.26C580.54 348.58 572.66 343.61 564.27 339.69C559.95 337.67 555.51 335.93 550.97 334.51C550.27 334.3 549.57 334.08 548.88 333.88C540.43 331.42 531.71 329.94 522.92 329.56C504.39 328.77 485.72 332.69 469.07 341C459.62 345.73 450.46 351.7 441.97 358.04C434.75 363.44 429.85 370.47 424.83 377.92C419.6 385.67 415.32 394.06 412.09 402.86C411.27 405.12 410.5 407.42 409.82 409.73C409.79 409.72 409.76 409.72 409.74 409.73C409.74 409.72 409.7 409.7 409.69 409.69C409.71 409.6 409.73 409.52 409.76 409.43H409.31C401.81 404.16 396.98 395.53 394.86 386.5C392.68 377.17 393.16 367.39 394.52 357.9C402.45 354.84 410.65 352.25 419.1 351.65C425.62 351.17 432.34 351.95 438.36 354.43C436.37 350.26 437.44 342.24 438.05 339.11C439.76 330.29 443.28 321.84 448.32 314.45C449.79 312.31 451.37 310.26 453.08 308.31C467.74 309.23 481.99 315.86 492.25 326.53C498.11 310.73 511.63 298.08 527.62 293.45C540.54 301.5 549.88 315.25 552.69 330.38C565.59 318.96 584.19 314.55 600.76 318.98C607.19 332.02 608.79 347.45 605.15 361.55C621.15 358.9 638.22 363.94 650.33 374.89C649.98 389.1 644.65 403.14 635.51 413.9C650.06 419.8 661.89 432.28 667.15 447.27C660.01 459.76 648.36 469.53 634.92 474.27V474.28Z" fill="white"/>
<path d="M701.71 461.29C702.34 460.89 702.96 460.5 703.61 460.12C734.93 441.44 771.66 439.8 803.03 452.47C800.83 438.93 796.09 425.58 788.64 413.09C765.75 374.67 723.49 354.91 681.75 358.83C682.06 358.16 682.38 357.48 682.71 356.81C698.96 324.17 728.97 302.92 762.22 296.63C753.03 286.43 741.84 277.76 728.83 271.27C688.79 251.34 642.56 257.55 609.55 283.43C609.45 282.69 609.36 281.95 609.28 281.21C605.3 244.96 619.06 210.86 643.62 187.59C630.38 183.98 616.28 182.74 601.83 184.31C557.37 189.19 521.84 219.42 508.04 259.01C507.56 258.45 507.08 257.87 506.61 257.29C483.67 228.94 476.83 192.83 484.9 159.97C471.81 164.08 459.28 170.67 447.97 179.81C413.2 207.95 399.66 252.59 409.47 293.37C408.76 293.16 408.04 292.94 407.33 292.7C372.72 281.25 347.42 254.57 336.45 222.56C327.65 233.1 320.68 245.42 316.1 259.23C302.06 301.7 314.82 346.59 345.12 375.55C344.4 375.76 343.67 375.95 342.94 376.14C307.64 385.23 271.93 376.46 245.4 355.47C243.7 369.09 244.48 383.22 248.11 397.31C259.26 440.61 294.22 471.48 335.37 479.5C334.9 480.06 334.39 480.61 333.89 481.15C309.09 507.89 274.32 519.81 240.65 516.5C246.58 528.87 254.88 540.34 265.55 550.23C298.35 580.64 344.48 587.69 383.43 572.17C383.32 572.91 383.19 573.65 383.06 574.39C376.65 610.29 353.84 639.12 323.73 654.54C335.41 661.74 348.59 666.89 362.91 669.45C406.94 677.3 449.55 658.3 473.95 624.19C474.26 624.86 474.54 625.56 474.83 626.25C488.85 659.92 485.25 696.5 468.25 725.75C481.97 725.49 495.84 722.71 509.27 717.12C550.55 699.92 576.14 660.9 578.21 619.03C578.84 619.43 579.45 619.85 580.06 620.27C610.05 641.01 626.82 673.72 628.33 707.53C639.73 699.9 649.9 690.04 658.17 678.07C683.6 641.29 684.01 594.63 663.12 558.28C663.86 558.28 664.61 558.3 665.35 558.33C701.79 559.57 733.58 578.04 753.13 605.65C758.61 593.07 761.84 579.28 762.32 564.74C763.83 520.06 738.97 480.58 701.73 461.3L701.71 461.29ZM676.9 453.23C674.4 492.2 657.94 530.39 630.18 557.95C590.21 597.63 528.37 613.7 474.14 598.51C436.04 587.84 402.25 562.49 381.34 528.9C360.43 495.31 352.6 453.8 359.83 414.9C366.58 378.57 386.16 344.96 414.59 321.49C419.63 317.33 424.93 313.5 430.45 310C441.49 303 453.39 297.35 465.78 293.16C490.54 284.78 517.32 282.18 543.17 286.25C547.82 286.98 552.44 287.93 557 289.1C611.56 303.04 657.1 347.87 671.89 402.21C676.41 418.81 678 436.09 676.9 453.23Z" fill="url(#paint6_linear_805_7802)"/>
<path d="M524.46 446.88C524.81 448.12 525.26 449.31 525.47 450.53C525.88 452.9 525.4 455.17 524.25 457.27C523.28 459.03 521.62 459.88 519.79 460.44C512.86 462.56 506.31 459.52 503.11 452.68C501.87 450.04 501.36 447.26 501.7 444.35C501.75 443.92 501.7 443.47 501.79 443.05C501.84 442.83 502.07 442.64 502.22 442.44C502.39 442.62 502.63 442.78 502.7 442.99C503.32 444.85 503.76 446.78 504.53 448.57C505.58 451.04 507.18 453.17 509.79 454.16C512.55 455.21 515.39 455.53 518.17 454.15C519.51 453.48 520.66 452.58 521.1 451.06C521.66 449.11 520.46 447.13 518.48 446.73C517.08 446.45 515.65 446.43 514.28 446.92C513.67 447.14 513.42 446.98 513.25 446.37C512.72 444.43 512.14 442.51 511.58 440.58C511.38 439.89 511.56 439.71 512.28 439.85C513.38 440.06 514.47 440.32 515.58 440.44C516.86 440.58 518.1 440.3 519.18 439.6C519.6 439.33 520 438.92 520.23 438.48C520.75 437.51 520.46 436.79 519.49 436.28C517.55 435.28 515.58 435.26 513.61 436.13C512.32 436.7 511.04 437.32 509.78 437.95C509.33 438.17 509.09 438.11 508.85 437.66C508.06 436.14 507.23 434.64 506.42 433.14C506.22 432.77 506.16 432.47 506.62 432.24C509.18 430.93 511.79 429.8 514.72 429.68C516.82 429.59 518.87 429.95 520.83 430.69C523.16 431.57 524.5 434.06 524.31 436.88C524.15 439.15 522.96 440.81 521.26 442.18C520.8 442.55 520.31 442.88 519.65 443.37C520.79 443.7 521.78 444.09 522.81 444.25C523.72 444.39 524.43 443.78 524.96 443.12C525.85 442.02 526.69 440.88 527.5 439.72C528.29 438.59 529.05 437.45 530.24 436.7C533.14 434.88 537.77 434.19 541.45 437.99C543.22 439.81 544.28 441.95 544.55 444.47C544.87 447.47 544.65 450.4 543.45 453.21C541.4 458.03 536.37 460.07 531.51 458.07C530.11 457.49 529.14 456.47 528.46 455.15C527.27 452.86 526.92 450.49 527.79 448.02C527.86 447.82 528.16 447.56 528.33 447.58C528.52 447.6 528.79 447.87 528.84 448.07C529.71 451.28 531.49 452.5 534.83 452.11C537.89 451.76 540.46 449.69 541.13 446.99C541.6 445.11 541.39 443.25 540.65 441.48C539.76 439.35 537.15 438.77 535.5 440.4C534.42 441.46 533.5 442.71 532.57 443.92C530.84 446.2 528.63 447.32 525.73 446.94C525.37 446.89 525 446.88 524.64 446.86C524.57 446.86 524.51 446.88 524.45 446.89L524.46 446.88Z" fill="white"/>
<path d="M532.74 433.25C529.56 433.09 526.33 432.17 523.89 429.41C522.38 427.69 521.6 425.68 521.89 423.36C521.92 423.11 522.14 422.88 522.26 422.64C522.45 422.81 522.72 422.94 522.82 423.15C524.97 428.06 532.08 430.28 537.17 426.21C538.72 424.97 538.71 425.04 539.88 426.51C540.62 427.44 541.38 428.35 542.13 429.27C542.39 429.59 542.44 429.86 542.06 430.13C539.38 432.06 536.43 433.22 532.73 433.26L532.74 433.25Z" fill="white"/>
<path d="M531.21 426.9C530.97 426.77 530.71 426.67 530.51 426.51C529.4 425.59 528.31 424.65 527.21 423.73C526.85 423.43 526.8 423.16 527.16 422.83C528.39 421.71 529.62 420.58 530.84 419.45C531.13 419.18 531.37 419.19 531.67 419.45C532.86 420.49 534.05 421.51 535.25 422.54C535.64 422.87 535.61 423.22 535.27 423.53C534.14 424.56 533.01 425.59 531.86 426.6C531.7 426.74 531.46 426.8 531.21 426.91V426.9Z" fill="white"/>
<path d="M579.31 377.54C576.3 382.69 573.22 387.52 569.47 389.21V389.18H526.79V389.15H514.67V418.83H526.4C526.55 418.83 526.68 418.86 526.79 418.91V401.31H569.39L569.46 401.22L572.42 397.65C576.84 392.31 579.32 385.57 579.35 378.59C579.35 377.99 579.33 377.61 579.29 377.55L579.31 377.54Z" fill="white"/>
<path d="M497.99 433.46L482.7 433.49L482.61 390.89L482.52 390.82L478.94 387.86C473.59 383.46 466.85 380.99 459.87 380.97C459.27 380.97 458.89 380.99 458.83 381.03C463.99 384.03 468.82 387.1 470.52 390.84H470.49L470.58 433.52H470.55L470.58 445.64L498 445.58V433.46H497.99Z" fill="white"/>
<path d="M574.4 488.03H574.43L574.34 445.35H574.37L574.34 433.23L546.33 433.29V445.41L562.22 445.38L562.31 487.98L562.4 488.05L565.98 491.01C571.33 495.41 578.07 497.88 585.05 497.9C585.65 497.9 586.03 497.88 586.09 497.84C580.93 494.84 576.1 491.77 574.4 488.03Z" fill="white"/>
<path d="M515.03 463.96L515.14 477.7L472.54 478.04L472.47 478.13L469.54 481.72C465.17 487.09 462.74 493.85 462.76 500.83C462.76 501.43 462.78 501.81 462.83 501.87C465.8 496.69 468.84 491.84 472.57 490.12V490.15L515.25 489.8V489.83L527.37 489.73L527.16 463.94H515.04L515.03 463.96Z" fill="white"/>
<path d="M241.6 877.641L241.57 873.831C245.8 873.711 249.52 872.061 251.84 869.591L250.89 763.921C248.53 761.491 244.78 759.911 240.55 759.861L240.52 756.051C249.78 755.971 259.04 755.881 268.31 755.801L310.75 853.981L351.41 755.061C360.67 754.981 369.94 754.891 379.2 754.811L379.23 758.621C375 758.751 371.29 760.391 368.96 762.861L369.91 868.531C372.28 870.951 376.02 872.531 380.25 872.581L380.28 876.391C367.58 876.501 354.88 876.621 342.18 876.731L342.15 872.921C346.38 872.801 350.1 871.151 352.42 868.681L351.52 768.651L306.96 877.051L301.54 877.101L256.2 772.201L257.08 869.551C259.45 871.981 263.19 873.561 267.42 873.611L267.45 877.421C258.83 877.501 250.21 877.571 241.59 877.651L241.6 877.641Z" fill="#F9BD36" stroke="#FFED7D" stroke-miterlimit="10"/>
<path d="M439.01 753.07C462.72 752.86 483.06 769.77 490.87 793.6C493.01 800.14 494.21 807.19 494.28 814.56C494.59 848.79 470.34 876.77 440.13 877.04C409.91 877.31 385.17 849.78 384.86 815.55C384.79 808.18 385.87 801.1 387.89 794.53C395.27 770.56 415.3 753.28 439.01 753.07ZM402.69 815.39C402.97 846.54 419.71 871.64 440.08 871.46C460.45 871.28 476.73 845.88 476.45 814.72C476.38 807.3 475.38 800.22 473.62 793.75C467.99 773.04 454.58 758.51 439.06 758.65C423.54 758.79 410.4 773.57 405.14 794.37C403.5 800.87 402.62 807.96 402.69 815.38V815.39Z" fill="#F9BD36" stroke="#FFED7D" stroke-miterlimit="10"/>
<path d="M646.9 821.031C632.5 812.401 614.03 803.221 613.85 782.901C613.7 766.021 628.47 751.371 648.28 751.191C663.85 751.051 671.83 757.971 674.34 758.651C677.06 759.381 681.74 759.171 681.68 751.601L684.34 751.581L684.64 784.241L680.99 784.271C680.69 751.461 626.27 747.221 626.52 775.511C626.66 791.431 644.66 798.741 655.57 805.281C669.9 813.861 688.45 823.311 688.63 843.641C688.78 860.091 674.12 874.941 654.2 875.121C638.63 875.261 623.74 867.371 621.23 866.691C618.51 865.961 614.82 867.191 614.89 874.761L612.23 874.781L611.93 842.121L615.58 842.091C615.83 869.861 674.69 882.631 674.41 850.841C674.26 833.801 658.43 827.941 646.91 821.031H646.9Z" fill="#F9BD36" stroke="#FFED7D" stroke-miterlimit="10"/>
<path d="M775.6 759.19C773.24 756.76 769.49 755.18 765.26 755.13L765.23 751.32C777.93 751.21 790.62 751.09 803.33 750.98L803.36 754.79C799.13 754.92 795.41 756.561 793.09 759.031L794.04 864.701C796.4 867.12 800.15 868.71 804.38 868.75L804.41 872.56C791.71 872.67 779.01 872.791 766.31 872.901L766.28 869.091C770.51 868.971 774.23 867.32 776.55 864.85L776.08 812.66L724.22 813.13L724.69 865.32C727.06 867.74 730.8 869.33 735.03 869.37L735.06 873.18C722.36 873.29 709.66 873.411 696.97 873.521L696.94 869.711C701.17 869.581 704.89 867.94 707.21 865.47L706.26 759.8C703.89 757.37 700.15 755.79 695.92 755.74L695.89 751.93C708.59 751.82 721.28 751.701 733.98 751.591L734.01 755.401C729.78 755.531 726.06 757.171 723.74 759.641L724.17 807.651L776.03 807.18L775.6 759.17V759.19Z" fill="#F9BD36" stroke="#FFED7D" stroke-miterlimit="10"/>
<path d="M531.84 818.1L568.43 772.61C573.41 766.48 574.9 758.31 572.61 754.68V753.29L592.92 753.11V754.5C586.02 758.21 578.96 765.22 570.19 775.72L551.46 798.3L581.66 853.44C588.19 865.37 593.28 870.53 600.26 874.12V875.51L566.92 875.81V874.42C569.13 870.75 567.34 865.04 563.46 857.95L538.91 813.36L531.86 821.76L532.19 858.24C532.26 866.23 534.2 869.51 539.11 874.68V876.07L508.55 876.35V874.96C513.7 869.7 514.89 866.39 514.82 858.4L514.04 771.73C513.97 763.74 512.72 760.45 507.47 755.28V753.89L538.03 753.61V755C533.23 760.25 531.35 763.57 531.42 771.56L531.84 818.11V818.1Z" fill="#F9BD36" stroke="#FFED7D" stroke-miterlimit="10"/>
<defs>
<linearGradient id="paint0_linear_805_7802" x1="407.855" y1="270.12" x2="407.855" y2="274.76" gradientUnits="userSpaceOnUse">
<stop stop-color="#FFED7D"/>
<stop offset="0.7" stop-color="#F9BD36"/>
</linearGradient>
<linearGradient id="paint1_linear_805_7802" x1="471.825" y1="352.43" x2="471.825" y2="352.61" gradientUnits="userSpaceOnUse">
<stop stop-color="#FFED7D"/>
<stop offset="0.7" stop-color="#F9BD36"/>
</linearGradient>
<linearGradient id="paint2_linear_805_7802" x1="407.855" y1="270.12" x2="407.855" y2="274.76" gradientUnits="userSpaceOnUse">
<stop stop-color="#FFED7D"/>
<stop offset="0.7" stop-color="#F9BD36"/>
</linearGradient>
<linearGradient id="paint3_linear_805_7802" x1="471.825" y1="352.43" x2="471.825" y2="352.61" gradientUnits="userSpaceOnUse">
<stop stop-color="#FFED7D"/>
<stop offset="0.7" stop-color="#F9BD36"/>
</linearGradient>
<linearGradient id="paint4_linear_805_7802" x1="563.94" y1="253.38" x2="563.94" y2="255.64" gradientUnits="userSpaceOnUse">
<stop stop-color="#FFED7D"/>
<stop offset="0.7" stop-color="#F9BD36"/>
</linearGradient>
<linearGradient id="paint5_linear_805_7802" x1="563.94" y1="253.39" x2="563.94" y2="255.65" gradientUnits="userSpaceOnUse">
<stop stop-color="#FFED7D"/>
<stop offset="0.7" stop-color="#F9BD36"/>
</linearGradient>
<linearGradient id="paint6_linear_805_7802" x1="521.84" y1="159.97" x2="521.84" y2="725.75" gradientUnits="userSpaceOnUse">
<stop stop-color="#FFED7D"/>
<stop offset="0.7" stop-color="#F9BD36"/>
</linearGradient>
</defs>
</svg>
