<svg height="24" viewBox="0 0 24 24" width="24" xmlns="http://www.w3.org/2000/svg">
  <path d="m18.48 7-.67-.21c0-.15.07-.31.11-.46.5-2.46.17-4.44-1-5.09s-2.85 0-4.65 1.59c-.17.15-.35.31-.51.47l-.3-.3c-1.88-1.71-3.76-2.42-4.89-1.76s-1.41 2.49-1 4.82q.06.35.15.69c-.26.07-.52.15-.77.24-2.2.76-3.78 2-3.78 3.22s1.68 2.58 4 3.36l.56.18c-.06.25-.11.49-.16.74-.43 2.29-.1 4.11 1 4.73s3 0 4.81-1.61l.43-.4c.18.18.37.34.56.51 1.77 1.52 3.52 2.13 4.6 1.51s1.47-2.6 1-5c0-.19-.08-.37-.12-.56l.39-.12c2.38-.79 4.1-2.06 4.1-3.37s-1.61-2.44-3.86-3.18zm-5.58-3.53c1.53-1.34 3-1.87 3.62-1.49s1 2 .53 4.14c0 .14-.06.28-.1.42a20.1 20.1 0 0 0 -2.78-.44 19.39 19.39 0 0 0 -1.76-2.19c.16-.16.32-.3.49-.44zm-4.78 8.88c.21.36.43.72.65 1.07-.64-.07-1.28-.18-1.91-.31.18-.6.41-1.21.67-1.84.19.36.38.72.59 1.08zm-1.25-5c.59-.13 1.23-.24 1.88-.32q-.33.51-.63 1c-.21.35-.4.71-.59 1.07a18 18 0 0 1 -.66-1.8zm1.13 2.88c.27-.57.57-1.13.88-1.68s.66-1.08 1-1.6c.62 0 1.25-.07 1.9-.07s1.28 0 1.89.07c.35.52.69 1 1 1.59s.62 1.11.9 1.67c-.28.57-.57 1.13-.89 1.68s-.68 1.11-.99 1.61c-.62.05-1.26.07-1.9.07s-1.28 0-1.89-.06c-.36-.52-.69-1.06-1-1.61s-.62-1.1-.9-1.67zm7.46 2.11c.21-.36.4-.73.6-1.1.26.6.49 1.2.7 1.83-.64.14-1.29.25-1.94.33.22-.35.43-.7.64-1.06zm.59-3.16q-.29-.54-.6-1.08c-.2-.35-.41-.7-.63-1a17.87 17.87 0 0 1 1.9.33 18.27 18.27 0 0 1 -.67 1.75zm-4.26-4.64a15.82 15.82 0 0 1 1.21 1.46q-1.21 0-2.44 0a18.93 18.93 0 0 1 1.23-1.46zm-4.79-2.54c.69-.41 2.23.17 3.85 1.61l.32.29a20.76 20.76 0 0 0 -1.77 2.2 21.83 21.83 0 0 0 -2.77.43c0-.21-.1-.43-.14-.64-.39-2-.14-3.51.51-3.89zm-1 10.89-.51-.16a8.55 8.55 0 0 1 -2.6-1.29 1.8 1.8 0 0 1 -.77-1.23c0-.76 1.3-1.72 3.18-2.38l.7-.23a22 22 0 0 0 1 2.63 22.51 22.51 0 0 0 -1 2.66zm4.82 4.05a7.61 7.61 0 0 1 -2.33 1.45 1.85 1.85 0 0 1 -1.49.06c-.65-.38-.93-1.84-.56-3.8 0-.23.1-.46.16-.69a20.3 20.3 0 0 0 2.8.4 22.34 22.34 0 0 0 1.78 2.21l-.39.37zm1-1a19.46 19.46 0 0 1 -1.25-1.5h1.22s.84 0 1.25 0c-.38.56-.79 1.01-1.22 1.49zm5.39 1.24a1.8 1.8 0 0 1 -.68 1.29c-.65.38-2.05-.11-3.56-1.41l-.53-.47a19.54 19.54 0 0 0 1.74-2.22 19.21 19.21 0 0 0 2.82-.44c0 .17.08.34.11.5a7.42 7.42 0 0 1 .1 2.74zm.79-4.45-.36.11a19.22 19.22 0 0 0 -1.05-2.63 20.55 20.55 0 0 0 1-2.6l.62.19c1.93.66 3.28 1.65 3.28 2.4s-1.49 1.85-3.49 2.53zm-6.18-.62a1.89 1.89 0 1 0 -1.92-1.89 1.89 1.89 0 0 0 1.89 1.89zm-9.54 9.72a.9.9 0 0 0 .61-.9.94.94 0 0 0 -1-1h-1.29v3.16h.49v-1.18h.69l.64 1.21h.58zm-.49-.34h-.7v-1.1h.69a.54.54 0 0 1 .61.55.53.53 0 0 1 -.6.55zm3.39.56v-.16c0-.75-.4-1.21-1.07-1.21a1.11 1.11 0 0 0 -1.11 1.25 1.09 1.09 0 0 0 1.11 1.23 1 1 0 0 0 1-.69h-.41a.58.58 0 0 1 -.57.29.63.63 0 0 1 -.64-.68zm-1.07-1a.57.57 0 0 1 .59.61h-1.21a.61.61 0 0 1 .62-.57zm2.23-.41c-.54 0-.93.27-1 .68h.46c0-.17.23-.27.5-.27s.48.15.48.4v.17h-.52c-.64 0-1.08.29-1.08.75s.37.72.88.72.89-.29.89-.71v-.65c0-.42-.4-.69-.93-.69zm.48 1.29c0 .2-.21.34-.5.34s-.48-.14-.48-.35.23-.36.52-.36h.46zm2.13-1.38a1 1 0 0 0 -.75.33v-.3h-.48v3.18h.49v-1.67a.74.74 0 0 1 .71-.32c.39 0 .57.26.57.65v1.34h.49v-1.39c.03-.63-.25-1.12-.9-1.12zm2.3.41c-.53 0-.93.28-1 .69h.46c0-.17.23-.27.5-.27s.49.15.49.4v.17h-.53c-.64 0-1.08.29-1.08.75s.38.72.89.72.88-.29.88-.71v-.65c0-.41-.39-.69-.91-.69zm.48 1.28c0 .21-.2.35-.49.35s-.48-.14-.48-.35.23-.36.51-.36h.46zm1.44-1.26c-.54 0-.92.26-1 .64h.44c.08-.15.25-.23.5-.23.34 0 .56.19.56.45v.2l-.6.06c-.61.07-.94.28-.94.69s.33.69.8.69a.84.84 0 0 0 .76-.46h.06v.38h.46v-1.7c.01-.45-.39-.72-1.04-.72zm.56 1.17c0 .27-.23.46-.57.46s-.54-.15-.54-.38.2-.35.52-.38l.59-.06zm-10.27.79h-.48v-2.08h-.71v-.42h1.91v.42h-.72z" fill="#4A90E2"/>
</svg>
